# xmcd
# 
# Track frame offsets:
#     150
#     17795
#     34567
#     55939
#     75050
#     91217
#     110325
#     127972
#     146917
#     165965
#     182297
#     202315
#     219505
# 
# Disc length: 3128
# 
# Revision: 5
# Processed by: cddbd v1.5.2PL0 Copyright (c) Steve Scherf et al.
# Submitted via: fre:ac v1.0.17
# 
DISCID=a00c360d
DTITLE=J - Gold
DYEAR=1998
DGENRE=kpop
TTITLE0=목소리를 위한 협주곡
TTITLE1=가리워진 사랑
TTITLE2=애수
TTITLE3=너의 사랑
TTITLE4=너의 향기
TTITLE5=고백
TTITLE6=후애
TTITLE7=GoodBye
TTITLE8=사랑하기 때문에
TTITLE9=함께
TTITLE10=너의 사랑 (Remix)
TTITLE11=애수 (Remix)
TTITLE12=GoodBye (Remix)
EXTD=
EXTT0=
EXTT1=
EXTT2=
EXTT3=
EXTT4=
EXTT5=
EXTT6=
EXTT7=
EXTT8=
EXTT9=
EXTT10=
EXTT11=
EXTT12=
PLAYORDER=
